<svg width="101" height="87" viewBox="0 0 101 87" fill="none" xmlns="http://www.w3.org/2000/svg">
<g clip-path="url(#clip0_5833_14318)">
<path d="M56.204 84.5252C78.2977 84.5252 96.2096 66.6155 96.2096 44.4448C96.2096 22.2742 78.2188 4.36407 56.204 4.36407C34.1102 4.36407 16.1985 22.2742 16.1985 44.4448C16.1985 66.6155 34.1102 84.5252 56.204 84.5252Z" fill="#F1F3F9" stroke="#D6DCE8" stroke-width="2" stroke-miterlimit="10"/>
<path d="M93.6058 18.1716C95.3922 18.1716 96.8409 16.7233 96.8409 14.9368C96.8409 13.1502 95.3922 11.7019 93.6058 11.7019C91.8185 11.7019 90.3706 13.1502 90.3706 14.9368C90.3706 16.7233 91.8185 18.1716 93.6058 18.1716Z" fill="#F1F3F9"/>
<path d="M98.34 5.54768C99.5599 5.54768 100.549 4.5586 100.549 3.33851C100.549 2.11841 99.5599 1.12933 98.34 1.12933C97.1193 1.12933 96.1306 2.11841 96.1306 3.33851C96.1306 4.5586 97.1193 5.54768 98.34 5.54768Z" fill="#F1F3F9"/>
<path d="M18.329 18.0928C19.5492 18.0928 20.5384 17.1037 20.5384 15.8836C20.5384 14.6635 19.5492 13.6744 18.329 13.6744C17.1088 13.6744 16.1196 14.6635 16.1196 15.8836C16.1196 17.1037 17.1088 18.0928 18.329 18.0928Z" fill="#F1F3F9"/>
<path d="M4.83603 60.6981C7.10213 60.6981 8.93913 58.8611 8.93913 56.5953C8.93913 54.3294 7.10213 52.4926 4.83603 52.4926C2.56994 52.4926 0.73291 54.3294 0.73291 56.5953C0.73291 58.8611 2.56994 60.6981 4.83603 60.6981Z" fill="#F1F3F9"/>
<path d="M67.8031 23.1423L79.8759 66.5368C80.2705 68.0358 79.4025 69.5349 77.9031 69.9293L35.3727 81.2122C33.8734 81.6066 32.3742 80.7388 31.9797 79.2395L17.1453 23.2212C16.7508 21.7221 17.6188 20.223 19.118 19.8285L49.8914 11.7019L67.8031 23.1423Z" fill="white" stroke="#D6DCE8" stroke-width="2" stroke-miterlimit="10"/>
<path d="M67.1721 50.5991L44.2103 56.6743L41.6853 57.3055L34.0314 59.3569C33.7158 59.4358 33.4791 59.8303 33.6369 60.2248C33.7158 60.6193 34.1103 60.856 34.426 60.7771L42.0799 58.7257L44.6049 58.0945L67.5666 52.0193C67.8822 51.9404 68.1189 51.5459 67.9611 51.1514C67.8822 50.7569 67.4877 50.5202 67.1721 50.5991Z" fill="#D6DCE8"/>
<path d="M65.6727 45.2339L57.1508 47.4431L54.2313 48.2321L32.6899 53.9917C32.3743 54.0706 32.1375 54.4651 32.2953 54.8596C32.3743 55.2541 32.7688 55.4908 33.0844 55.4119L54.7047 49.6523L57.6243 48.8633L66.1461 46.6541C66.4618 46.5752 66.6985 46.1807 66.5407 45.7862C66.3828 45.4706 65.9883 45.155 65.6727 45.2339Z" fill="#D6DCE8"/>
<path d="M64.4101 39.7899L62.2008 40.3422L59.9914 40.8945L31.1906 48.5478C30.875 48.6266 30.6383 49.0211 30.7961 49.4156C30.875 49.8101 31.2695 50.0468 31.5851 49.9679L60.3859 42.3147L62.832 41.6835L64.8047 41.1312C65.1203 41.0523 65.357 40.6578 65.1992 40.2633C65.1203 39.9477 64.8047 39.7111 64.4101 39.7899Z" fill="#D6DCE8"/>
<path d="M51.075 67.7203L49.4969 68.1148C49.1813 68.1937 48.7868 67.957 48.7079 67.5625C48.6289 67.168 48.7868 66.7735 49.1024 66.6946L50.6805 66.3001C50.9961 66.2212 51.3907 66.4579 51.4696 66.8524C51.5485 67.3258 51.3907 67.6414 51.075 67.7203Z" fill="#D6DCE8"/>
<path d="M46.2618 68.9826L37.1876 71.3496C36.872 71.4285 36.4774 71.1918 36.3985 70.7973C36.3196 70.4028 36.4774 70.0083 36.7931 69.9294L45.8673 67.5624C46.1829 67.4835 46.5774 67.7202 46.6563 68.1147C46.8141 68.5092 46.6563 68.9037 46.2618 68.9826Z" fill="#D6DCE8"/>
<path d="M63.3056 34.3461L56.1251 36.2396L54.3892 36.713L29.8493 43.1828C29.5337 43.2617 29.297 43.6562 29.4548 44.0507C29.5337 44.4451 29.9282 44.6818 30.2438 44.6029L54.7048 38.2121L56.4407 37.7387L63.5423 35.8451C63.9368 35.7662 64.0946 35.3718 64.0157 34.8984C64.0157 34.5828 63.6212 34.2672 63.3056 34.3461Z" fill="#D6DCE8"/>
<path d="M46.3407 22.4321L25.9829 27.7972C25.5095 27.955 25.036 27.6394 24.8782 27.166C24.7204 26.6927 25.036 26.2193 25.5095 26.0615L45.8673 20.6963C46.3407 20.5385 46.8142 20.8541 46.972 21.3275C47.1298 21.8009 46.8142 22.2743 46.3407 22.4321Z" fill="#D6DCE8"/>
<path d="M35.1359 30.6377L27.3242 32.6891C26.8508 32.8469 26.3773 32.5313 26.2195 32.0579C26.0617 31.5845 26.3773 31.1111 26.8508 30.9533L34.5836 28.9019C35.057 28.7442 35.5305 29.0597 35.6883 29.5331C35.8461 30.0065 35.5305 30.4799 35.1359 30.6377Z" fill="#D6DCE8"/>
<path d="M49.8914 11.7019L53.0476 23.6946C53.521 25.3514 55.3359 26.3771 56.9929 25.9037L67.8031 23.1423" fill="#D6DCE8"/>
<path d="M99.6816 35.3715L92.4222 79.8709C92.1855 81.37 90.6863 82.3957 89.1871 82.0801L45.9463 74.5055C44.4471 74.2688 43.4213 72.7697 43.658 71.2706L53.6791 14.2266C53.9158 12.7275 55.415 11.7018 56.9142 12.0174L88.3191 17.5403L99.6816 35.3715Z" fill="white" stroke="#D6DCE8" stroke-width="2" stroke-miterlimit="10"/>
<path d="M87.6088 60.0669L64.2524 55.9642L61.7274 55.4908L53.9156 54.1495C53.6 54.0706 53.2055 54.3862 53.2055 54.7807C53.1266 55.1752 53.3633 55.5697 53.6789 55.6486L61.4906 56.9899L64.0156 57.4633L87.372 61.566C87.6877 61.6449 88.0822 61.3293 88.0822 60.9348C88.1611 60.5403 88.0033 60.1458 87.6088 60.0669Z" fill="#D6DCE8"/>
<path d="M88.5557 54.623L79.876 53.1239L76.9564 52.5716L54.9415 48.7055C54.6259 48.6266 54.2314 48.9422 54.2314 49.3367C54.1525 49.7312 54.3892 50.1257 54.7048 50.2046L76.7196 54.0707L79.6393 54.623L88.319 56.122C88.6346 56.2009 89.0292 55.8853 89.0292 55.4909C89.1081 55.0964 88.8714 54.7019 88.5557 54.623Z" fill="#D6DCE8"/>
<path d="M89.6604 49.1L87.3721 48.7055L85.0839 48.311L55.7306 43.1826C55.415 43.1037 55.0204 43.4193 55.0204 43.8138C54.9415 44.2083 55.1782 44.6028 55.4939 44.6817L84.8471 49.8101L87.3721 50.2835L89.3448 50.5991C89.6604 50.678 90.055 50.3624 90.055 49.9679C90.2128 49.5734 90.055 49.1789 89.6604 49.1Z" fill="#D6DCE8"/>
<path d="M65.8305 68.9036L64.2524 68.6669C63.9368 68.588 63.7001 68.1935 63.779 67.799C63.8579 67.4045 64.1735 67.0889 64.4891 67.1678L66.0672 67.4045C66.3829 67.4834 66.6196 67.8779 66.5407 68.2724C66.4618 68.7458 66.1462 68.9036 65.8305 68.9036Z" fill="#D6DCE8"/>
<path d="M61.0171 68.0357L51.7851 66.4577C51.4695 66.3788 51.2328 65.9843 51.3117 65.5898C51.3906 65.1953 51.7062 64.8797 52.0218 64.9586L61.2539 66.5366C61.5695 66.6155 61.8062 67.01 61.7273 67.4045C61.6484 67.8779 61.3328 68.1146 61.0171 68.0357Z" fill="#D6DCE8"/>
<path d="M90.9228 43.7348L83.5845 42.4724L81.7696 42.1568L56.7562 37.7385C56.4406 37.6596 56.0461 37.9752 56.0461 38.3697C55.9671 38.7642 56.2039 39.1587 56.5195 39.2376L81.5329 43.6559L83.3478 43.9715L90.6072 45.2339C91.0017 45.3128 91.3173 44.9972 91.3962 44.6027C91.4751 44.2082 91.2384 43.8137 90.9228 43.7348Z" fill="#D6DCE8"/>
<path d="M80.5861 25.8246L59.8336 22.1952C59.3601 22.1164 59.0445 21.643 59.1234 21.1696C59.2023 20.6962 59.6758 20.3806 60.1492 20.4595L80.9017 24.0888C81.3751 24.1677 81.6908 24.6411 81.6118 25.1145C81.5329 25.509 81.0595 25.9035 80.5861 25.8246Z" fill="#D6DCE8"/>
<path d="M66.9352 28.5073L58.9656 27.0872C58.4922 27.0083 58.1766 26.5349 58.2555 26.0615C58.3344 25.5881 58.8078 25.2725 59.2813 25.3514L67.1719 26.7716C67.6453 26.8505 67.961 27.3239 67.8821 27.7972C67.8032 28.2706 67.3297 28.5862 66.9352 28.5073Z" fill="#D6DCE8"/>
<path d="M88.24 17.5404L86.1095 29.7698C85.7939 31.5055 87.0564 33.1624 88.7924 33.478L99.6814 35.3716" fill="#D6DCE8"/>
<path d="M69.9337 75.6891C79.6519 75.6891 87.5299 67.8118 87.5299 58.0945C87.5299 48.3774 79.6519 40.5001 69.9337 40.5001C60.2156 40.5001 52.3376 48.3774 52.3376 58.0945C52.3376 67.8118 60.2156 75.6891 69.9337 75.6891Z" fill="white"/>
<path d="M95.4529 85.2676C94.7696 85.2676 94.0871 84.9946 93.5402 84.38L82.1343 72.9745L81.724 73.2477C78.0361 75.9794 73.7332 77.4136 69.3619 77.4136C64.1028 77.4136 58.8437 75.2965 54.9506 71.6086C50.8525 67.7158 48.5986 62.4572 48.5986 56.7205C48.5986 45.3153 57.8875 36.0273 69.2937 36.0273C77.0799 36.0273 83.9097 40.125 87.5978 47.091C91.218 53.9887 90.7399 62.0474 86.3006 68.5354L86.0276 68.9452L97.5021 80.4184C98.6628 81.5798 98.3898 82.7404 98.1847 83.3551C97.6386 84.4478 96.5458 85.2676 95.4529 85.2676ZM69.2937 41.6957C60.961 41.6957 54.2676 48.4569 54.2676 56.7205C54.2676 66.145 61.9855 71.8135 69.4985 71.8135C74.0747 71.8135 78.241 69.7647 81.178 66.0768C84.7982 61.5694 85.4129 55.4911 82.8855 50.2325C80.2903 44.9738 75.0992 41.6957 69.2937 41.6957Z" fill="#D6DCE8" stroke="#AAB2C5" stroke-width="2" stroke-miterlimit="10"/>
<path d="M68.2767 60.9348C68.1978 60.6192 68.1978 60.3036 68.1978 59.9091C68.1978 58.5678 68.7501 57.3843 70.1705 56.3587L71.3541 55.4908C72.0642 54.9385 72.3798 54.3073 72.3798 53.5183C72.3798 52.4137 71.5908 51.3091 69.9337 51.3091C68.1978 51.3091 67.4087 52.7293 67.4087 54.0706C67.4087 54.3862 67.4087 54.6229 67.4876 54.8596L64.3314 54.7807C64.2525 54.4651 64.1736 54.0706 64.1736 53.6761C64.1736 50.9935 66.1462 48.4688 69.8548 48.4688C73.6423 48.4688 75.6939 50.9146 75.6939 53.3605C75.6939 55.333 74.6681 56.6743 73.2478 57.6999L72.222 58.41C71.3541 59.0412 70.8806 59.8302 70.8806 60.777V60.9348H68.2767ZM69.6181 62.5128C70.7228 62.5128 71.5908 63.3807 71.5908 64.4853C71.5908 65.5899 70.7228 66.4577 69.6181 66.4577C68.5134 66.4577 67.6455 65.5899 67.6455 64.4853C67.7244 63.4596 68.5134 62.5128 69.6181 62.5128Z" fill="#B2C0D1"/>
</g>
<defs>
<clipPath id="clip0_5833_14318">
<rect width="101" height="86" fill="white" transform="translate(0 0.5)"/>
</clipPath>
</defs>
</svg>
