<svg width="88" height="84" viewBox="0 0 88 84" fill="none" xmlns="http://www.w3.org/2000/svg">
<g clip-path="url(#clip0_5833_3775)">
<path d="M46.8647 83.2906C68.4049 83.2906 85.8736 65.9656 85.8736 44.5721C85.8736 23.1783 68.4049 5.85336 46.8647 5.85336C25.3244 5.85336 7.85577 23.1783 7.85577 44.5721C7.85577 65.9656 25.3244 83.2906 46.8647 83.2906Z" fill="#F1F3F9" stroke="#D6DCE8" stroke-width="1.5" stroke-miterlimit="10"/>
<path d="M76.7451 39.519V63.2096C76.7451 68.1312 72.7391 72.1344 67.7481 72.1344H26.1123C21.187 72.1344 17.181 68.1969 17.1153 63.2752C17.1153 63.2096 17.1153 63.2096 17.1153 63.144V39.519C17.1153 39.4534 17.1153 39.4534 17.1153 39.3877C17.1153 39.2565 17.1153 39.1252 17.181 38.994C17.2467 38.7971 17.3123 38.6659 17.378 38.469L28.5422 17.1409C28.9362 16.2877 29.79 15.8284 30.7094 15.8284H63.0855C64.0049 15.8284 64.7929 16.2877 65.2526 17.1409L76.4168 38.469C76.4824 38.6002 76.5481 38.7971 76.6138 38.994C76.7451 39.1252 76.7451 39.3221 76.7451 39.519Z" fill="#F1F3F9" stroke="#D6DCE8" stroke-width="1.5" stroke-miterlimit="10"/>
<path d="M63.1619 7.20975C64.0189 16.5595 64.4475 18.7006 62.507 27.1681C61.876 29.0505 61.2449 31.1123 59.8927 32.5466C57.9995 34.7876 54.5738 35.7737 51.7792 35.0565C48.8944 34.3394 46.5505 31.8294 46.0096 28.7816C45.5589 26.8991 46.1899 24.6581 47.8126 23.4928C49.5254 22.417 51.9595 22.686 53.4019 24.0305C55.0246 25.3752 55.6556 27.4369 55.5655 29.4091C55.4753 31.3812 54.7542 33.3534 53.7625 35.0565C51.5208 39.2445 50.5979 39.2291 46.0096 46.1073" stroke="#B3BCCE" stroke-width="1.5" stroke-miterlimit="10" stroke-dasharray="3 3"/>
<path d="M68.1881 3.72756C67.8453 4.97692 66.4747 5.43124 65.1041 4.63619C63.6193 3.95472 62.5913 3.38682 62.8198 2.25103C63.1624 1.11524 64.5331 1.00166 66.1319 0.888087C68.0738 0.660926 68.4166 2.47819 68.1881 3.72756Z" fill="#DAE2EB"/>
<path d="M57.1087 4.86328C57.6798 5.88549 59.2789 6.56697 60.4211 5.54475C61.6776 4.40896 62.7056 3.61391 62.1345 2.47812C61.5634 1.45591 60.6496 1.79665 58.7078 2.0238C57.1087 2.36454 56.4234 3.72749 57.1087 4.86328Z" fill="#DAE2EB"/>
<path d="M62.1344 0.660979C62.934 0.547399 63.7335 1.00172 63.9619 1.68319C64.0762 1.91035 64.1904 2.25108 64.1904 2.47824C64.4188 4.06835 63.8477 5.43129 62.934 5.54487C61.906 5.77203 60.8779 4.63624 60.7637 3.15972C60.7637 2.70539 60.7637 2.47824 60.7637 2.1375C60.8779 1.34245 61.3349 0.774557 62.1344 0.660979C62.2486 0.660979 62.1344 0.660979 62.1344 0.660979Z" fill="#989FB0"/>
<path d="M76.7451 39.519V65.6374C76.7451 69.2468 73.8556 72.1343 70.1779 72.1343H23.6825C20.0705 72.1343 17.1153 69.2468 17.1153 65.6374V39.3877C17.1153 39.2565 17.1153 39.1252 17.181 38.994H32.1541C34.387 38.994 36.2258 40.7658 36.2258 43.0627C36.2258 44.1783 36.6855 45.2283 37.4079 45.9502C38.1959 46.7377 39.1153 47.1315 40.2974 47.1315H53.6288C55.8616 47.1315 57.7004 45.3596 57.7004 43.0627C57.7004 41.9471 58.1601 40.8971 58.8825 40.1752C59.6706 39.3877 60.59 38.994 61.7064 38.994H76.6138C76.7451 39.1252 76.7451 39.3221 76.7451 39.519Z" fill="white" stroke="#D6DCE8" stroke-width="1.5" stroke-miterlimit="10"/>
<path d="M39.4376 55.8988C40.2697 55.8988 40.9443 55.2247 40.9443 54.3931C40.9443 53.5616 40.2697 52.8875 39.4376 52.8875C38.6054 52.8875 37.9308 53.5616 37.9308 54.3931C37.9308 55.2247 38.6054 55.8988 39.4376 55.8988Z" fill="#989FB0"/>
<path d="M54.4232 55.8988C55.2553 55.8988 55.9299 55.2247 55.9299 54.3931C55.9299 53.5616 55.2553 52.8875 54.4232 52.8875C53.591 52.8875 52.9165 53.5616 52.9165 54.3931C52.9165 55.2247 53.591 55.8988 54.4232 55.8988Z" fill="#989FB0"/>
<path d="M49.3737 65.7871H44.65C43.917 65.7871 43.3062 65.1768 43.3062 64.4443C43.3062 63.7118 43.917 63.1014 44.65 63.1014H49.333C50.066 63.1014 50.6768 63.7118 50.6768 64.4443C50.7176 65.1768 50.1068 65.7871 49.3737 65.7871Z" fill="#989FB0"/>
<path d="M84.8766 26.0659C86.3641 26.0659 87.5691 24.8612 87.5691 23.3752C87.5691 21.8892 86.3641 20.6846 84.8766 20.6846C83.3898 20.6846 82.1841 21.8892 82.1841 23.3752C82.1841 24.8612 83.3898 26.0659 84.8766 26.0659Z" fill="#F1F3F9"/>
<path d="M82.184 17.3378C83.2 17.3378 84.0228 16.5151 84.0228 15.5003C84.0228 14.4855 83.2 13.6628 82.184 13.6628C81.1687 13.6628 80.3452 14.4855 80.3452 15.5003C80.3452 16.5151 81.1687 17.3378 82.184 17.3378Z" fill="#F1F3F9"/>
<path d="M7.71291 23.3752C8.72845 23.3752 9.55171 22.5526 9.55171 21.5377C9.55171 20.5229 8.72845 19.7002 7.71291 19.7002C6.69736 19.7002 5.87411 20.5229 5.87411 21.5377C5.87411 22.5526 6.69736 23.3752 7.71291 23.3752Z" fill="#F1F3F9"/>
<path d="M3.5756 63.8003C5.46161 63.8003 6.99052 62.2725 6.99052 60.3878C6.99052 58.5031 5.46161 56.9753 3.5756 56.9753C1.68959 56.9753 0.160675 58.5031 0.160675 60.3878C0.160675 62.2725 1.68959 63.8003 3.5756 63.8003Z" fill="#F1F3F9"/>
</g>
<defs>
<clipPath id="clip0_5833_3775">
<rect width="88" height="84" fill="white"/>
</clipPath>
</defs>
</svg>
