<svg width="88" height="95" viewBox="0 0 88 95" fill="none" xmlns="http://www.w3.org/2000/svg">
<g clip-path="url(#clip0_5833_13523)">
<path d="M41.831 93.4931C63.2571 93.4931 80.6271 75.9607 80.6271 54.2575C80.6271 32.5542 63.2571 15.0217 41.831 15.0217C20.4049 15.0217 3.03442 32.5542 3.03442 54.2575C3.03442 75.9607 20.4049 93.4931 41.831 93.4931Z" fill="#F1F3F9" stroke="#D6DCE8" stroke-width="2" stroke-miterlimit="10"/>
<path d="M13.2883 28.8469H68.4605C70.6796 28.8469 72.3631 30.5461 72.3631 32.7859V68.0827C72.3631 70.3225 70.6796 72.0217 68.4605 72.0217H13.2883C11.0692 72.0217 9.3857 70.3225 9.3857 68.0827V32.7859C9.3857 30.5461 11.2222 28.8469 13.2883 28.8469Z" fill="#F1F3F9" stroke="#D6DCE8" stroke-width="2" stroke-miterlimit="10"/>
<path d="M73.4344 51.4769V68.8549C73.4344 71.0948 71.6744 72.9484 69.3787 72.9484H12.6761C10.457 72.9484 8.62048 71.0948 8.62048 68.8549V50.0094" stroke="#1676EE" stroke-width="3" stroke-linecap="round" stroke-linejoin="round"/>
<path d="M68.6136 41.7452H50.7075C48.9475 41.7452 47.264 42.3631 45.9632 43.4444L41.2953 47.3062C39.9945 48.3875 38.311 49.0054 36.551 49.0054H16.3493C14.2832 49.0054 12.5997 50.7046 12.5997 52.79C12.5997 52.9444 12.5997 53.1761 12.6762 53.3306L16.4258 73.2574C16.7319 75.1111 18.2623 76.5013 20.1753 76.5013H63.4101C65.2466 76.5013 66.8536 75.1883 67.1597 73.3347L72.3632 46.0704C72.7458 43.9851 71.3684 42.1314 69.3023 41.7452C68.9962 41.7452 68.7666 41.7452 68.6136 41.7452Z" fill="white"/>
<path d="M76.648 36.416H53.3858C51.0901 36.416 48.9475 37.1883 47.1875 38.6558L41.0658 43.6761C39.3823 45.0664 37.1632 45.916 34.8675 45.916H8.54403C5.86575 45.916 3.72314 48.1558 3.72314 50.7818C3.72314 51.0135 3.72314 51.2453 3.79967 51.477L8.62055 77.5053C9.00316 79.9769 11.0692 81.7533 13.4414 81.7533H69.7614C72.2101 81.7533 74.1997 80.0541 74.5823 77.5826L81.3923 41.977C81.8515 39.2737 80.0915 36.8794 77.4132 36.3387C77.1836 36.416 76.8776 36.416 76.648 36.416Z" fill="white" stroke="#D6DCE8" stroke-width="2" stroke-miterlimit="10"/>
<path d="M31.6535 63.3714C33.0309 63.3714 34.1787 62.2128 34.1787 60.8226C34.1787 59.4323 33.0309 58.2738 31.6535 58.2738C30.2761 58.2738 29.1283 59.4323 29.1283 60.8226C29.1283 62.2128 30.2761 63.3714 31.6535 63.3714Z" fill="#AAB2C5"/>
<path d="M51.3196 63.294C52.697 63.294 53.8448 62.1354 53.8448 60.7452C53.8448 59.355 52.697 58.1964 51.3196 58.1964C49.9422 58.1964 48.7944 59.355 48.7944 60.7452C48.7944 62.2127 49.9422 63.294 51.3196 63.294Z" fill="#AAB2C5"/>
<path d="M38.3875 45.0664C35.6327 39.6599 35.0206 33.1721 36.8571 27.3022C38.6171 21.4323 42.8257 16.412 48.0292 13.5542C49.6361 12.7046 51.4726 12.0095 53.3092 11.9323C55.1457 11.855 57.1353 12.4729 58.3597 14.0176C59.584 15.4079 59.8136 17.725 58.8188 19.2697C57.7475 20.7372 55.6049 21.355 53.8449 20.8916C51.0136 20.351 48.7179 18.1111 48.0292 15.4079C47.3405 12.7046 48.2588 9.53797 50.4014 7.76155C51.7788 6.52577 53.6919 5.83065 55.4519 5.29C64.0223 2.74122 73.3579 2.43227 82.081 4.36317" stroke="#D6DCE8" stroke-width="2" stroke-miterlimit="10" stroke-dasharray="4 4"/>
<path d="M43.8971 66.0745H39.1527V67.233H43.8971V66.0745Z" fill="#AAB2C5"/>
<path d="M86.6723 2.35497C86.5958 3.51351 86.5193 4.59481 85.6776 4.82652C84.8358 5.05822 84.4532 4.28587 83.9176 3.20457C83.3819 2.2005 83.688 1.1192 84.6063 0.887492C85.448 0.655785 86.8254 0.964728 86.6723 2.35497Z" fill="#F1F3F9" stroke="#D6DCE8" stroke-width="2" stroke-miterlimit="10"/>
<path d="M85.7541 7.91598C85.9837 6.52571 86.2132 5.75335 85.448 5.36717C84.6063 4.981 84.0706 5.67612 83.1524 6.60295C82.3871 7.45254 82.8463 8.68834 83.6115 9.07451C84.5297 9.53793 85.5245 9.07451 85.7541 7.91598Z" fill="#F1F3F9" stroke="#D6DCE8" stroke-width="2" stroke-miterlimit="10"/>
<path d="M86.8254 5.36726C86.7489 5.90791 86.3663 6.29409 85.8306 6.37132C85.601 6.37132 85.3715 6.37132 85.0654 6.37132C83.9941 6.21685 83.1523 5.52173 83.2289 4.82661C83.3054 4.13148 84.3002 3.7453 85.5245 3.89978C85.7541 3.89978 85.9837 3.97701 86.1367 4.05425C86.5958 4.20872 86.9019 4.74937 86.8254 5.36726C86.8254 5.36726 86.8254 5.29002 86.8254 5.36726Z" fill="#F1F3F9"/>
<path d="M86.8254 5.36726C86.7489 5.90791 86.3663 6.29409 85.8306 6.37132C85.601 6.37132 85.3715 6.37132 85.0654 6.37132C83.9941 6.21685 83.1523 5.52173 83.2289 4.82661C83.3054 4.13148 84.3002 3.7453 85.5245 3.89978C85.7541 3.89978 85.9837 3.97701 86.1367 4.05425C86.5958 4.20872 86.9019 4.74937 86.8254 5.36726ZM86.8254 5.36726C86.8254 5.29002 86.8254 5.36726 86.8254 5.36726V5.36726Z" stroke="#D6DCE8" stroke-width="2" stroke-miterlimit="10"/>
<path d="M1.42749 27.0704C1.42749 25.7574 1.42749 24.4444 2.34575 24.0582C3.34053 23.6721 3.87619 24.5989 4.6414 25.9119C5.3301 27.0704 5.02401 28.3062 4.02923 28.6924C3.18749 29.0786 1.42749 28.8469 1.42749 27.0704Z" fill="#F1F3F9" stroke="#D6DCE8" stroke-width="2" stroke-miterlimit="10"/>
<path d="M1.96313 20.5827C1.81009 22.2046 1.58052 23.1315 2.57531 23.5176C3.57009 23.9038 4.10574 23.0542 5.10052 21.8185C5.86574 20.7372 5.33009 19.3469 4.33531 18.9607C3.34052 18.5746 2.11618 19.2697 1.96313 20.5827Z" fill="#F1F3F9" stroke="#D6DCE8" stroke-width="2" stroke-miterlimit="10"/>
<path d="M1.12138 23.6722C1.12138 23.0543 1.58051 22.5909 2.11617 22.5136C2.34573 22.4364 2.65182 22.4364 2.95791 22.5136C4.18225 22.5909 5.25356 23.286 5.17704 24.0583C5.10051 24.8307 4.10573 25.3713 2.80486 25.2169C2.5753 25.2169 2.34573 25.1396 2.11617 25.0624C1.50399 24.9852 1.12138 24.3673 1.12138 23.6722Z" fill="#F1F3F9" stroke="#D6DCE8" stroke-width="2" stroke-miterlimit="10"/>
<path d="M6.32486 23.9038C14.3596 23.9038 29.2048 28.6152 29.4344 45.916" stroke="#D6DCE8" stroke-width="2" stroke-miterlimit="10" stroke-dasharray="4 4"/>
</g>
<defs>
<clipPath id="clip0_5833_13523">
<rect width="88" height="95" fill="white"/>
</clipPath>
</defs>
</svg>
