<svg width="102" height="96" viewBox="0 0 102 96" fill="none" xmlns="http://www.w3.org/2000/svg">
<g id="64" clip-path="url(#clip0_1988_691)">
<path id="Vector" d="M48.1812 94.5747C70.6932 94.5747 88.9438 73.8202 88.9438 48.1288C88.9438 22.4374 70.6932 1.68311 48.1812 1.68311C25.6692 1.68311 7.41846 22.4374 7.41846 48.1288C7.41846 73.8202 25.6692 94.5747 48.1812 94.5747Z" fill="#F1F3F9" stroke="#D6DCE8" stroke-width="2" stroke-miterlimit="10"/>
<path id="Vector_2" d="M93.607 29.0198C95.428 29.0198 96.9034 27.3416 96.9034 25.2713C96.9034 23.2011 95.428 21.5227 93.607 21.5227C91.7867 21.5227 90.3105 23.2011 90.3105 25.2713C90.3105 27.3416 91.7867 29.0198 93.607 29.0198Z" fill="#F1F3F9"/>
<path id="Vector_3" d="M98.4319 14.2999C99.6749 14.2999 100.683 13.1538 100.683 11.7399C100.683 10.3261 99.6749 9.17993 98.4319 9.17993C97.1881 9.17993 96.1807 10.3261 96.1807 11.7399C96.1807 13.1538 97.1881 14.2999 98.4319 14.2999Z" fill="#F1F3F9"/>
<path id="Vector_4" d="M4.60472 31.6713C5.84801 31.6713 6.85592 30.5251 6.85592 29.1113C6.85592 27.6974 5.84801 26.5513 4.60472 26.5513C3.36141 26.5513 2.35352 27.6974 2.35352 29.1113C2.35352 30.5251 3.36141 31.6713 4.60472 31.6713Z" fill="#EAEEF9"/>
<path id="Vector_5" d="M8.78529 87.3513C11.0943 87.3513 12.9661 85.2228 12.9661 82.5971C12.9661 79.9713 11.0943 77.8428 8.78529 77.8428C6.4763 77.8428 4.60449 79.9713 4.60449 82.5971C4.60449 85.2228 6.4763 87.3513 8.78529 87.3513Z" fill="#F1F3F9"/>
<path id="Vector_6" d="M85.9694 29.5684H16.2629C14.7353 29.5684 13.5293 28.197 13.5293 26.4598V8.63128C13.5293 6.89413 14.7353 5.52271 16.2629 5.52271H85.889C87.4166 5.52271 88.6226 6.89413 88.6226 8.63128V26.4598C88.703 28.197 87.4166 29.5684 85.9694 29.5684Z" fill="white" stroke="#D6DCE8" stroke-width="2" stroke-miterlimit="10"/>
<path id="Vector_7" d="M28.4033 22.62C27.3581 23.7171 25.9109 24.3571 24.3833 24.3571C22.8557 24.3571 21.4085 23.7171 20.3633 22.62C20.8457 22.4371 21.4085 22.1629 22.1321 21.7971C22.2929 21.7057 22.4537 21.5229 22.5341 21.34C22.6145 21.2486 22.6145 21.0657 22.6145 20.9743V19.2371L22.5341 19.1457C22.3733 18.9629 22.2929 18.6886 22.2929 18.4143L22.1321 18.3229C21.7301 18.4143 21.8105 17.9571 21.6497 17.0429C21.6497 16.6771 21.6497 16.5857 21.8105 16.4943L21.9713 16.3114C21.2477 14.3914 21.5693 13.2029 22.3733 12.7457C22.1321 12.1057 22.1321 11.9229 22.1321 11.9229C22.1321 11.9229 23.7401 12.1971 24.2225 12.1057C24.9461 11.9229 25.9913 12.1057 26.3933 13.2029C27.0365 13.4771 27.2777 13.9343 27.3581 14.4829C27.4385 15.3057 27.0365 16.22 26.9561 16.4943C27.0365 16.5857 27.1169 16.6771 27.0365 16.9514C26.9561 17.7743 26.9561 18.3229 26.5541 18.2314L26.2325 19.0543C26.2325 19.1457 26.2325 19.1457 26.2325 19.2371C26.2325 19.3286 26.2325 19.6029 26.2325 21.0657C26.2325 21.2486 26.3129 21.4314 26.3129 21.5229C26.3933 21.7057 26.5541 21.7971 26.6345 21.8886C27.3581 22.1629 27.9209 22.4371 28.4033 22.62Z" fill="white"/>
<path id="Vector_8" d="M50.1913 15.4886H34.7545C34.3525 15.4886 34.1113 15.1228 34.1113 14.7571V12.4714C34.1113 12.0143 34.4329 11.74 34.7545 11.74H50.1913C50.5933 11.74 50.8345 12.1057 50.8345 12.4714V14.7571C50.8345 15.2143 50.5933 15.4886 50.1913 15.4886Z" fill="#D6DCE8"/>
<path id="Vector_9" d="M68.5225 23.2598H34.7545C34.3525 23.2598 34.1113 22.8941 34.1113 22.5284V20.2427C34.1113 19.7855 34.4329 19.5112 34.7545 19.5112H68.5225C68.9245 19.5112 69.1657 19.8769 69.1657 20.2427V22.5284C69.1657 22.9855 68.8441 23.2598 68.5225 23.2598Z" fill="#D6DCE8"/>
<path id="Vector_10" d="M85.9694 89.5457H16.2629C14.7353 89.5457 13.5293 88.1743 13.5293 86.4371V68.6086C13.5293 66.8714 14.7353 65.5 16.2629 65.5H85.889C87.4166 65.5 88.6226 66.8714 88.6226 68.6086V86.4371C88.703 88.1743 87.4166 89.5457 85.9694 89.5457Z" fill="white" stroke="#D6DCE8" stroke-width="2" stroke-miterlimit="10"/>
<path id="Vector_11" d="M50.1913 75.5573H34.7545C34.3525 75.5573 34.1113 75.1915 34.1113 74.8258V72.5401C34.1113 72.083 34.4329 71.8086 34.7545 71.8086H50.1913C50.5933 71.8086 50.8345 72.1744 50.8345 72.5401V74.8258C50.8345 75.1915 50.5933 75.5573 50.1913 75.5573Z" fill="#D6DCE8"/>
<path id="Vector_12" d="M68.5225 83.3287H34.7545C34.3525 83.3287 34.1113 82.963 34.1113 82.5973V80.3116C34.1113 79.8545 34.4329 79.5801 34.7545 79.5801H68.5225C68.9245 79.5801 69.1657 79.9459 69.1657 80.3116V82.5973C69.1657 82.963 68.8441 83.3287 68.5225 83.3287Z" fill="#D6DCE8"/>
<path id="Vector_13" d="M74.1505 59.5572H4.52413C2.99653 59.5572 1.79053 58.1858 1.79053 56.4486V38.62C1.79053 36.8829 2.99653 35.5115 4.52413 35.5115H74.1505C75.6781 35.5115 76.8841 36.8829 76.8841 38.62V56.4486C76.9645 58.1858 75.6781 59.5572 74.1505 59.5572Z" fill="white" stroke="#D6DCE8" stroke-width="2" stroke-miterlimit="10"/>
<path id="Vector_14" d="M38.453 45.4773H23.0162C22.6142 45.4773 22.373 45.1116 22.373 44.7459V42.4602C22.373 42.003 22.6946 41.7288 23.0162 41.7288H38.453C38.855 41.7288 39.0962 42.0945 39.0962 42.4602V44.7459C39.0962 45.203 38.855 45.4773 38.453 45.4773Z" fill="#D6DCE8"/>
<path id="Vector_15" d="M56.7842 53.3401H23.0162C22.6142 53.3401 22.373 52.9744 22.373 52.6087V50.323C22.373 49.8658 22.6946 49.5916 23.0162 49.5916H56.7038C57.1058 49.5916 57.347 49.9573 57.347 50.323V52.6087C57.4274 52.9744 57.1058 53.3401 56.7842 53.3401Z" fill="#D6DCE8"/>
<path id="Vector_16" d="M11.0366 48.8601C11.117 48.9515 11.1974 49.043 11.2778 49.1344C11.1974 49.043 11.117 48.9515 11.0366 48.8601Z" fill="#3973F4"/>
</g>
<defs>
<clipPath id="clip0_1988_691">
<rect width="100.5" height="96" fill="white" transform="translate(0.75)"/>
</clipPath>
</defs>
</svg>
