<svg width="30" height="32" viewBox="0 0 30 32" fill="none" xmlns="http://www.w3.org/2000/svg">
<g id="Logomark">
<path id="Vector" d="M7.15864 11H2.18219C0.977208 11 0 11.9551 0 13.1333V15H7.5C9.38279 15 10.9091 13.5076 10.9091 11.6667C10.9091 9.82572 12.4354 8.33333 14.3182 8.33333H27.2727C28.779 8.33333 30 7.13943 30 5.66667V3.66667H14.6591C12.588 3.66667 10.9091 5.30829 10.9091 7.33333C10.9091 9.35838 9.2297 11 7.15864 11Z" fill="#0A0D12"/>
<path id="Vector_2" opacity="0.7" d="M7.15864 17.6667H2.18219C0.977208 17.6667 0 18.6218 0 19.8V21.6667H7.5C9.38279 21.6667 10.9091 20.1743 10.9091 18.3333C10.9091 16.4924 12.4354 15 14.3182 15H23.1818C24.688 15 25.9091 13.8061 25.9091 12.3333V10.3333H14.6591C12.588 10.3333 10.9091 11.975 10.9091 14C10.9091 16.025 9.2297 17.6667 7.15864 17.6667Z" fill="#0A0D12"/>
<path id="Vector_3" opacity="0.5" d="M7.15864 24.3333H2.18219C0.977208 24.3333 0 25.2885 0 26.4667V28.3333H7.5C9.38279 28.3333 10.9091 26.8409 10.9091 25C10.9091 23.1591 12.4354 21.6667 14.3182 21.6667H19.6364C20.8413 21.6667 21.8182 20.7115 21.8182 19.5333V17H14.6591C12.588 17 10.9091 18.6416 10.9091 20.6667C10.9091 22.6917 9.2297 24.3333 7.15864 24.3333Z" fill="#0A0D12"/>
</g>
</svg>
