<svg width="31" height="26" viewBox="0 0 31 26" fill="none" xmlns="http://www.w3.org/2000/svg">
<g id="Layer_1" clip-path="url(#clip0_5602_7580)">
<path id="Vector" d="M15.5679 8.65362L13.8355 7.67428C13.8355 7.67428 11.5627 6.52789 11.7206 4.34157C11.9185 1.74911 13.5711 1.11368 13.5711 1.11368L15.5562 0.00987625L15.5679 8.65362Z" fill="#EF4444"/>
<path id="Vector_2" d="M15.5511 8.66997L20.6387 11.5441C20.6387 11.5441 24.4111 13.1474 24.6572 16.8552C25.0279 20.8642 21.5381 22.5838 21.5381 22.5838L27.2259 19.2577C28.7388 18.3733 29.9342 17.0255 30.5378 15.3976C30.8154 14.6508 31 13.7812 31 12.792C31 8.83374 27.8809 7.01099 27.8809 7.01099L15.5728 2.38419e-05L15.5511 8.66997Z" fill="#64748B"/>
<path id="Vector_3" d="M15.5629 17.2727V8.62899L21.924 12.2565C21.924 12.2565 24.7421 13.9335 24.7138 17.2891C24.6839 20.6447 22.1002 22.2349 22.1002 22.2349L17.6378 24.8094C17.6378 24.8094 19.6545 23.0423 19.3237 21.0673C19.0909 19.3329 17.4699 18.3782 17.4699 18.3782L15.5645 17.2727H15.5629Z" fill="#14B8A6"/>
<path id="Vector_4" d="M13.5544 1.13006L9.33144 3.55384C9.33144 3.55384 6.1775 5.35694 6.47178 9.22845C6.63471 10.9808 7.59902 12.2451 8.29731 12.946C8.64146 13.2916 9.03716 13.5831 9.46279 13.8238L15.5629 17.2744V8.63069L13.8371 7.67592C13.2668 7.35984 12.7597 6.93895 12.374 6.41817C12.0415 5.9678 11.7439 5.38315 11.7006 4.70678C11.7256 1.94399 13.5544 1.1317 13.5544 1.1317V1.13006Z" fill="#F97316"/>
<path id="Vector_5" d="M15.5163 26L4.19901 19.5328C2.82737 18.7483 1.68017 17.6216 0.941982 16.2394C0.431565 15.2863 0.0574815 14.1186 0.133961 12.7986C0.345111 9.14491 2.66277 7.31889 3.79998 6.69656C4.9372 6.07424 9.33144 3.55383 9.33144 3.55383C9.33144 3.55383 6.14591 5.56001 6.47177 9.22844C6.78102 12.3581 9.46278 13.8238 9.46278 13.8238L15.5628 17.2744L15.5163 26.0017V26Z" fill="#FACC15"/>
<path id="Vector_6" d="M15.5162 26L17.6377 24.8094C17.6377 24.8094 19.5198 23.9201 19.435 21.3047C19.4333 19.1495 16.5969 17.8819 16.5969 17.8819L15.5628 17.2727L15.5162 26Z" fill="#22C55E"/>
</g>
<defs>
<clipPath id="clip0_5602_7580">
<rect width="30.8761" height="26" fill="white" transform="translate(0.124023)"/>
</clipPath>
</defs>
</svg>
