<svg width="110" height="21" viewBox="0 0 110 21" fill="none" xmlns="http://www.w3.org/2000/svg">
<g id="Type">
<path id="Vector" d="M13.1189 16.8285C12.1213 16.8285 11.168 16.8245 10.2166 16.8325C10.0621 16.8325 10.0159 16.7341 9.9537 16.6418C9.01639 15.3031 8.07909 13.9644 7.14981 12.6217C7.06351 12.4972 6.98122 12.4511 6.82868 12.4511C5.65855 12.4591 4.48842 12.4611 3.3183 12.4511C3.10153 12.449 3.0654 12.5113 3.0654 12.712C3.07544 13.9985 3.0634 15.283 3.07745 16.5696C3.07945 16.8024 3.00921 16.8365 2.80047 16.8345C2.02373 16.8225 1.24498 16.8265 0.468244 16.8345C0.309684 16.8345 0.255493 16.8024 0.255493 16.6318C0.261514 11.7626 0.259507 6.89548 0.255493 2.02834C0.255493 1.8738 0.283592 1.81559 0.456201 1.8176C2.57969 1.82362 4.70318 1.80355 6.82667 1.82763C8.29585 1.84369 9.68877 2.17486 10.901 3.05596C12.1595 3.97319 12.7596 5.24768 12.8459 6.77907C12.9001 7.75852 12.7716 8.70988 12.32 9.59499C11.7882 10.6326 10.9613 11.3552 9.89349 11.8048C9.70081 11.8871 9.68877 11.9372 9.80518 12.1038C10.8589 13.5951 11.9026 15.0924 12.9503 16.5876C12.9964 16.6539 13.0426 16.7221 13.1189 16.8305V16.8285ZM3.06942 7.16443C3.06942 8.0917 3.07343 9.01696 3.0654 9.94422C3.0654 10.0968 3.08748 10.157 3.2641 10.157C4.35796 10.1469 5.45383 10.161 6.54769 10.1489C7.05548 10.1429 7.55926 10.0707 8.04898 9.91412C9.46397 9.46052 10.0641 8.4048 10.0219 7.05003C9.97779 5.63705 9.26126 4.76598 7.89444 4.38263C7.44887 4.25819 6.99527 4.19798 6.53564 4.19397C5.44981 4.18393 4.36198 4.19397 3.27615 4.18594C3.0915 4.18594 3.0634 4.24615 3.0654 4.41073C3.07343 5.32796 3.06942 6.2472 3.06942 7.16644V7.16443Z" fill="#271F1F"/>
<path id="Vector_2" d="M82.7947 13.8102C83.435 12.064 84.0592 10.364 84.6834 8.66402C85.0587 7.64242 85.434 6.62083 85.7993 5.59521C85.8595 5.42662 85.9398 5.37042 86.1204 5.37243C86.7647 5.38447 87.407 5.37644 88.0512 5.37644H88.2941C87.9007 6.44019 87.5194 7.47584 87.138 8.51149C86.1465 11.201 85.151 13.8884 84.1655 16.5799C84.0933 16.7786 83.9969 16.8368 83.7902 16.8328C83.0958 16.8188 82.4033 16.8188 81.7089 16.8328C81.5162 16.8368 81.4359 16.7686 81.3717 16.596C80.4324 14.0751 79.487 11.5582 78.5417 9.03533C78.4373 9.0835 78.4393 9.18787 78.4092 9.26815C77.4719 11.7208 76.5366 14.1734 75.6053 16.6281C75.5512 16.7726 75.4909 16.8368 75.3244 16.8328C74.5898 16.8228 73.8532 16.8248 73.1166 16.8328C72.966 16.8328 72.8998 16.7846 72.8496 16.6461C71.4989 12.9571 70.1441 9.26815 68.7853 5.58116C68.7251 5.41859 68.7391 5.37243 68.9258 5.37443C69.6363 5.38447 70.3468 5.38447 71.0573 5.37443C71.2319 5.37243 71.2962 5.43264 71.3523 5.58919C72.2937 8.22648 73.241 10.8598 74.1863 13.495C74.2124 13.5693 74.2405 13.6436 74.2887 13.78C74.4573 13.3305 74.6038 12.9371 74.7523 12.5437C75.6194 10.2255 76.4885 7.90736 77.3495 5.58718C77.4077 5.42662 77.4779 5.37243 77.6506 5.37644C78.2446 5.38848 78.8387 5.3945 79.4308 5.37443C79.6596 5.36641 79.7419 5.45271 79.8142 5.65141C80.7776 8.32082 81.751 10.9862 82.7224 13.6516C82.7365 13.6897 82.7546 13.7239 82.7947 13.8122V13.8102Z" fill="#271F1F"/>
<path id="Vector_3" d="M29.8199 15.5325V15.7733C29.8199 17.4352 29.8179 19.095 29.8239 20.7569C29.8239 20.9375 29.7898 20.9977 29.5951 20.9937C28.8425 20.9817 28.0918 20.9817 27.3392 20.9937C27.1425 20.9977 27.1083 20.9335 27.1083 20.7529C27.1124 15.7031 27.1124 10.6533 27.1083 5.60349C27.1083 5.4349 27.1425 5.37268 27.3251 5.37469C28.0517 5.38472 28.7782 5.38271 29.5068 5.37469C29.6573 5.37469 29.7095 5.40881 29.7055 5.56737C29.6935 5.96677 29.7015 6.36819 29.7015 6.76559C29.7296 6.78164 29.7476 6.78365 29.7677 6.76157C30.5746 5.8604 31.6042 5.4068 32.7904 5.28236C34.101 5.14588 35.3534 5.33254 36.5095 5.98885C38.0971 6.89203 38.9742 8.28294 39.2351 10.0712C39.4258 11.3758 39.3094 12.6503 38.7313 13.8485C37.8723 15.6288 36.4252 16.6243 34.4844 16.9134C33.543 17.0538 32.6037 17.0217 31.6925 16.7106C31.0683 16.4979 30.5144 16.1667 30.0507 15.691C29.9985 15.6369 29.9443 15.5847 29.8881 15.5345C29.8801 15.5265 29.858 15.5325 29.8199 15.5305V15.5325ZM33.1597 7.54233C32.8446 7.52627 32.4994 7.57645 32.1622 7.67881C30.7412 8.11233 29.8701 9.29249 29.7938 10.8821C29.6975 12.8811 30.7974 14.3483 32.682 14.6313C34.109 14.8461 35.4297 14.2861 36.1502 12.9414C36.5356 12.2228 36.6099 11.4421 36.5416 10.6372C36.3851 8.80277 35.0263 7.54032 33.1597 7.54032V7.54233Z" fill="#271F1F"/>
<path id="Vector_4" d="M95.0664 11.9695C93.6534 11.9695 92.2425 11.9735 90.8295 11.9655C90.6348 11.9655 90.5946 12.0016 90.6468 12.1943C90.9097 13.1758 91.4938 13.9064 92.4191 14.2977C93.9545 14.946 95.4578 14.8537 96.8668 13.9104C97.0253 13.804 97.1698 13.6735 97.3103 13.5451C97.3866 13.4748 97.4267 13.4548 97.505 13.5451C97.9225 14.0328 98.342 14.5205 98.7735 14.9962C98.9019 15.1387 98.7915 15.2049 98.7193 15.2852C98.0489 16.0078 97.228 16.4875 96.2767 16.7223C94.4201 17.1839 92.5977 17.1137 90.8776 16.2145C89.1295 15.3013 88.1741 13.818 87.9453 11.8692C87.7667 10.3338 88.0517 8.8947 88.9589 7.62021C89.9444 6.23533 91.3172 5.49673 92.9891 5.29401C94.3037 5.13545 95.5702 5.29803 96.7463 5.94029C98.3279 6.80132 99.209 8.16011 99.5302 9.90627C99.6405 10.5004 99.6506 11.0985 99.6205 11.7006C99.6104 11.8933 99.5663 11.9816 99.3315 11.9796C97.9104 11.9655 96.4894 11.9715 95.0684 11.9715L95.0664 11.9695ZM93.812 10.1652C94.7975 10.1652 95.7849 10.1652 96.7704 10.1652C97.0695 10.1652 97.0655 10.1652 97.0032 9.87817C96.6881 8.44712 95.504 7.54595 94.2014 7.4195C92.4753 7.25292 91.0181 8.24642 90.6247 9.92232C90.5746 10.1391 90.6308 10.1712 90.8295 10.1692C91.825 10.1612 92.8185 10.1652 93.814 10.1652H93.812Z" fill="#271F1F"/>
<path id="Vector_5" d="M20.9809 11.9695C19.5679 11.9695 18.1569 11.9735 16.7439 11.9655C16.5432 11.9655 16.489 11.9916 16.5492 12.2103C16.8122 13.1858 17.3982 13.9063 18.3094 14.2957C19.8147 14.9379 21.298 14.8536 22.6969 13.9545C22.8715 13.8421 23.0261 13.6996 23.1806 13.5591C23.2669 13.4788 23.3151 13.4427 23.4114 13.5551C23.8209 14.0388 24.2363 14.5185 24.6598 14.9901C24.7642 15.1065 24.718 15.1647 24.6378 15.2551C23.9072 16.0619 22.992 16.5556 21.9423 16.7824C20.182 17.1618 18.4499 17.0875 16.8262 16.2445C14.9175 15.2551 13.944 13.6374 13.8076 11.5099C13.7172 10.0949 14.0203 8.77623 14.8573 7.61213C15.8548 6.22524 17.2336 5.48865 18.9176 5.29195C20.172 5.14744 21.3803 5.29597 22.5163 5.87601C24.1019 6.68486 25.0211 8.0015 25.3884 9.71956C25.5329 10.3899 25.567 11.0723 25.5028 11.7587C25.4868 11.9334 25.4406 11.9755 25.27 11.9755C23.841 11.9695 22.4119 11.9715 20.9829 11.9715L20.9809 11.9695ZM19.7224 10.1651C20.732 10.1651 21.7436 10.1651 22.7531 10.1651C22.8816 10.1651 22.9619 10.1571 22.9257 9.99252C22.8093 9.46666 22.6206 8.97493 22.2694 8.55746C21.4746 7.61213 20.447 7.31307 19.2488 7.43551C17.91 7.57399 16.758 8.61968 16.5111 9.93833C16.473 10.141 16.5332 10.1691 16.7178 10.1671C17.7194 10.1591 18.7209 10.1631 19.7244 10.1631L19.7224 10.1651Z" fill="#271F1F"/>
<path id="Vector_6" d="M46.0532 16.9811C44.3772 16.9811 42.886 16.4913 41.6556 15.3232C40.8087 14.5184 40.2868 13.5269 40.066 12.3869C39.8152 11.0883 39.9035 9.8118 40.4574 8.59753C41.176 7.028 42.3963 6.0064 44.0441 5.53072C45.9267 4.98881 47.7672 5.1273 49.4712 6.14689C51.0528 7.09423 51.9279 8.52326 52.1306 10.3557C52.3072 11.9493 51.9921 13.4245 51.0046 14.7151C50.0272 15.9916 48.6985 16.668 47.129 16.9108C46.7737 16.965 46.4144 16.9791 46.0552 16.9811H46.0532ZM46.0532 7.5398C44.7947 7.5398 43.8092 8.0516 43.1549 9.13542C42.7274 9.84392 42.6371 10.6307 42.6813 11.4476C42.7696 13.1215 43.9196 14.4522 45.5414 14.6408C46.7597 14.7813 47.8274 14.4702 48.6443 13.5088C49.3267 12.704 49.4973 11.7466 49.4311 10.725C49.3086 8.85644 47.9217 7.54582 46.0532 7.54181V7.5398Z" fill="#271F1F"/>
<path id="Vector_7" d="M68.4624 14.2822C68.7073 14.9024 68.9341 15.4905 69.1749 16.0745C69.2351 16.219 69.1549 16.2672 69.0645 16.3314C68.5527 16.6887 67.9767 16.8673 67.3665 16.9396C66.5055 17.0399 65.6465 17.0118 64.8256 16.6987C63.5109 16.1949 62.8446 15.1874 62.7181 13.8266C62.5817 12.3534 62.686 10.8742 62.664 9.399C62.6559 8.88118 62.6539 8.36336 62.668 7.84553C62.672 7.66289 62.6138 7.62676 62.4432 7.63078C61.9675 7.64282 61.4898 7.62877 61.0141 7.6388C60.8476 7.64282 60.7813 7.60669 60.7853 7.42204C60.7974 6.83798 60.7954 6.25393 60.7853 5.66987C60.7833 5.49927 60.8235 5.44106 61.0041 5.44508C61.4798 5.45712 61.9575 5.44106 62.4331 5.45311C62.6138 5.45913 62.672 5.41899 62.67 5.2243C62.6559 4.50577 62.67 3.78925 62.6599 3.07071C62.6559 2.88004 62.7101 2.83589 62.8968 2.83789C63.6575 2.84793 64.4181 2.84793 65.1788 2.83789C65.3334 2.83789 65.3755 2.87402 65.3735 3.03057C65.3655 3.76516 65.3755 4.49975 65.3655 5.23434C65.3635 5.41096 65.4117 5.45311 65.5863 5.4511C66.4553 5.44106 67.3244 5.45511 68.1935 5.44106C68.4102 5.43705 68.4544 5.50328 68.4484 5.706C68.4343 6.25593 68.4343 6.80788 68.4484 7.35782C68.4544 7.56856 68.4122 7.64282 68.1794 7.6388C67.3104 7.62275 66.4413 7.6368 65.5722 7.62877C65.4076 7.62877 65.3655 7.67292 65.3675 7.8355C65.3735 9.57161 65.3675 11.3077 65.3735 13.0438C65.3735 13.2425 65.3956 13.4453 65.4418 13.6379C65.6104 14.3545 66.1201 14.7478 66.8949 14.7599C67.4589 14.7699 67.9847 14.6375 68.4644 14.2802L68.4624 14.2822Z" fill="#271F1F"/>
<path id="Vector_8" d="M101.236 8.8671C101.236 6.30407 101.238 3.73903 101.232 1.176C101.232 0.977299 101.264 0.907052 101.482 0.913073C102.227 0.92913 102.97 0.927123 103.714 0.913073C103.909 0.909059 103.943 0.971278 103.943 1.15191C103.939 6.30407 103.939 11.4562 103.943 16.6084C103.943 16.779 103.905 16.8352 103.724 16.8332C102.964 16.8231 102.203 16.8211 101.442 16.8332C101.256 16.8352 101.23 16.7709 101.232 16.6064C101.238 14.0253 101.236 11.4462 101.236 8.86509V8.8671Z" fill="#271F1F"/>
<path id="Vector_9" d="M109.176 8.88636C109.176 11.4494 109.174 14.0124 109.182 16.5754C109.182 16.7862 109.128 16.8364 108.921 16.8323C108.176 16.8183 107.434 16.8223 106.689 16.8323C106.517 16.8344 106.464 16.7902 106.464 16.6116C106.468 11.4514 106.468 6.29121 106.464 1.13304C106.464 0.950401 106.523 0.912267 106.691 0.914274C107.444 0.922302 108.196 0.924309 108.947 0.914274C109.138 0.91026 109.18 0.962444 109.18 1.1491C109.174 3.72819 109.176 6.30928 109.176 8.88836V8.88636Z" fill="#271F1F"/>
<path id="Vector_10" d="M56.341 7.00407C57.3285 5.63324 58.7153 5.28802 60.2367 5.23784C60.4093 5.23182 60.4214 5.30207 60.4194 5.44056C60.4133 6.15106 60.4073 6.85956 60.4214 7.57006C60.4254 7.78482 60.3571 7.81091 60.1685 7.78482C59.4299 7.68246 58.7174 7.79084 58.057 8.13605C57.1378 8.61574 56.7002 9.4266 56.5377 10.4161C56.4815 10.7553 56.4754 11.0965 56.4754 11.4397C56.4754 13.1517 56.4714 14.8638 56.4795 16.5758C56.4795 16.7845 56.4233 16.8407 56.2165 16.8367C55.4639 16.8247 54.7112 16.8287 53.9586 16.8367C53.808 16.8367 53.7619 16.8026 53.7619 16.644C53.7659 12.953 53.7659 9.26202 53.7619 5.57102C53.7619 5.41447 53.806 5.37633 53.9586 5.37834C54.6851 5.38637 55.4137 5.38838 56.1403 5.37834C56.3129 5.37633 56.345 5.43454 56.341 5.58908C56.3309 6.03867 56.337 6.49026 56.337 7.00808L56.341 7.00407Z" fill="#271F1F"/>
</g>
</svg>
