<svg width="219" height="195" viewBox="0 0 219 195" fill="none" xmlns="http://www.w3.org/2000/svg">
<g filter="url(#filter0_d_959_13663)">
<path fill-rule="evenodd" clip-rule="evenodd" d="M33.496 39.2206C-9.86294 63.8128 -9.86294 125.29 33.496 149.883L97.1577 185.989C103.58 189.632 111.493 189.632 117.916 185.989L181.578 149.883C224.937 125.29 224.936 63.8127 181.577 39.2204L117.916 3.11433C111.493 -0.52834 103.58 -0.528345 97.1577 3.11432L33.496 39.2206Z" fill="white"/>
</g>
<g clip-path="url(#clip0_959_13663)">
<path d="M107.97 69.3642L98.0803 63.6889C98.0803 63.6889 85.1066 57.0456 86.0082 44.3758C87.1376 29.3523 96.5713 25.67 96.5713 25.67L107.903 19.2734L107.97 69.3642Z" fill="#EF4444"/>
<path d="M107.874 69.4592L136.916 86.115C136.916 86.115 158.45 95.4062 159.855 116.893C161.971 140.125 142.05 150.09 142.05 150.09L174.518 130.815C183.154 125.69 189.978 117.88 193.423 108.446C195.008 104.118 196.062 99.079 196.062 93.3467C196.062 70.4082 178.257 59.8453 178.257 59.8453L107.998 19.2166L107.874 69.4592Z" fill="#64748B"/>
<path d="M107.941 119.312V69.2217L144.252 90.2431C144.252 90.2431 160.338 99.9614 160.177 119.407C160.006 138.853 145.258 148.069 145.258 148.069L119.785 162.988C119.785 162.988 131.297 152.747 129.408 141.302C128.08 131.251 118.826 125.719 118.826 125.719L107.95 119.312H107.941Z" fill="#14B8A6"/>
<path d="M96.4759 25.7651L72.3696 39.8111C72.3696 39.8111 54.3658 50.2601 56.0456 72.6956C56.9757 82.8504 62.4803 90.1771 66.4664 94.239C68.431 96.2415 70.6898 97.9308 73.1194 99.3259L107.941 119.322V69.2316L98.0893 63.6986C94.834 61.8669 91.9394 59.4279 89.7375 56.4099C87.8394 53.8 86.1406 50.4119 85.8938 46.4924C86.0362 30.4819 96.4759 25.7746 96.4759 25.7746V25.7651Z" fill="#F97316"/>
<path d="M107.675 169.887L43.0719 132.409C35.2421 127.863 28.6935 121.334 24.4797 113.324C21.566 107.801 19.4306 101.034 19.8672 93.3846C21.0725 72.2113 34.3025 61.6294 40.7941 58.023C47.2857 54.4166 72.3696 39.8108 72.3696 39.8108C72.3696 39.8108 54.1855 51.4366 56.0456 72.6953C57.8109 90.8316 73.1193 99.3256 73.1193 99.3256L107.941 119.322L107.675 169.897V169.887Z" fill="#FACC15"/>
<path d="M107.675 169.887L119.785 162.987C119.785 162.987 130.529 157.834 130.044 142.678C130.035 130.188 113.844 122.843 113.844 122.843L107.941 119.312L107.675 169.887Z" fill="#22C55E"/>
</g>
<defs>
<filter id="filter0_d_959_13663" x="0.976807" y="0.382324" width="217.12" height="194.339" filterUnits="userSpaceOnUse" color-interpolation-filters="sRGB">
<feFlood flood-opacity="0" result="BackgroundImageFix"/>
<feColorMatrix in="SourceAlpha" type="matrix" values="0 0 0 0 0 0 0 0 0 0 0 0 0 0 0 0 0 0 127 0" result="hardAlpha"/>
<feOffset dx="4" dy="6"/>
<feComposite in2="hardAlpha" operator="out"/>
<feColorMatrix type="matrix" values="0 0 0 0 0.0941176 0 0 0 0 0.301961 0 0 0 0 0.65098 0 0 0 0.6 0"/>
<feBlend mode="normal" in2="BackgroundImageFix" result="effect1_dropShadow_959_13663"/>
<feBlend mode="normal" in="SourceGraphic" in2="effect1_dropShadow_959_13663" result="shape"/>
</filter>
<clipPath id="clip0_959_13663">
<rect width="176.251" height="150.671" fill="white" transform="translate(19.8107 19.2163)"/>
</clipPath>
</defs>
</svg>
