<svg width="38" height="32" viewBox="0 0 38 32" fill="none" xmlns="http://www.w3.org/2000/svg">
<g clip-path="url(#clip0_386_4020)">
<path d="M18.7235 10.6507L16.6231 9.44532C16.6231 9.44532 13.8677 8.03438 14.0592 5.34353C14.2991 2.1528 16.3026 1.37074 16.3026 1.37074L18.7093 0.012207L18.7235 10.6507Z" fill="#EF4444"/>
<path d="M18.7032 10.6707L24.8712 14.2081C24.8712 14.2081 29.4447 16.1814 29.743 20.7448C30.1925 25.679 25.9616 27.7954 25.9616 27.7954L32.8572 23.7017C34.6914 22.6133 36.1407 20.9544 36.8724 18.9509C37.209 18.0318 37.4327 16.9615 37.4327 15.744C37.4327 10.8723 33.6514 8.62888 33.6514 8.62888L18.7295 0L18.7032 10.6707Z" fill="#64748B"/>
<path d="M18.7173 21.2588V10.6204L26.4292 15.085C26.4292 15.085 29.8457 17.149 29.8115 21.279C29.7752 25.409 26.6429 27.3661 26.6429 27.3661L21.2328 30.5347C21.2328 30.5347 23.6778 28.3598 23.2767 25.929C22.9945 23.7945 21.0292 22.6194 21.0292 22.6194L18.7193 21.2588H18.7173Z" fill="#14B8A6"/>
<path d="M16.2825 1.39087L11.1627 4.37399C11.1627 4.37399 7.33897 6.59319 7.69574 11.3581C7.89328 13.5148 9.06236 15.0709 9.90894 15.9336C10.3262 16.3589 10.8059 16.7177 11.3219 17.014L18.7174 21.2609V10.6224L16.6251 9.44731C15.9338 9.05829 15.319 8.54028 14.8513 7.89931C14.4482 7.34502 14.0874 6.62544 14.035 5.79299C14.0652 2.39263 16.2825 1.39288 16.2825 1.39288V1.39087Z" fill="#F97316"/>
<path d="M18.6609 32.0001L4.94034 24.0404C3.27742 23.075 1.88661 21.6882 0.991659 19.987C0.372851 18.8139 -0.0806726 17.3768 0.0120478 15.7522C0.268037 11.2554 3.07787 9.00794 4.45658 8.242C5.83529 7.47606 11.1627 4.37402 11.1627 4.37402C11.1627 4.37402 7.30067 6.84316 7.69574 11.3582C8.07066 15.21 11.3219 17.014 11.3219 17.014L18.7174 21.2609L18.6609 32.0021V32.0001Z" fill="#FACC15"/>
<path d="M18.6609 32L21.2329 30.5347C21.2329 30.5347 23.5146 29.4402 23.4118 26.2213C23.4098 23.5687 19.9711 22.0086 19.9711 22.0086L18.7173 21.2588L18.6609 32Z" fill="#22C55E"/>
</g>
<defs>
<clipPath id="clip0_386_4020">
<rect width="37.4328" height="32" fill="white"/>
</clipPath>
</defs>
</svg>
