<svg width="128" height="108" viewBox="0 0 128 108" fill="none" xmlns="http://www.w3.org/2000/svg">
<g id="17" clip-path="url(#clip0_2510_16099)">
<path id="Vector" d="M122.823 55.4311C122.823 69.6311 117.023 82.4311 107.723 91.6311C98.6229 100.731 86.0229 106.231 72.1229 106.231C58.3229 106.231 45.7229 100.631 36.5229 91.6311C27.2228 82.4311 21.4229 69.6311 21.4229 55.4311C21.4229 27.3311 44.1229 4.6311 72.1229 4.6311C100.123 4.6311 122.823 27.4311 122.823 55.4311Z" fill="#F1F3F9" stroke="#D6DCE8" stroke-width="2" stroke-miterlimit="10"/>
<path id="Vector_2" d="M118.423 22.1312C120.687 22.1312 122.523 20.2955 122.523 18.0312C122.523 15.7668 120.687 13.9312 118.423 13.9312C116.159 13.9312 114.323 15.7668 114.323 18.0312C114.323 20.2955 116.159 22.1312 118.423 22.1312Z" fill="#F1F3F9"/>
<path id="Vector_3" d="M124.423 6.13113C125.969 6.13113 127.223 4.87753 127.223 3.33113C127.223 1.78473 125.969 0.531128 124.423 0.531128C122.877 0.531128 121.623 1.78473 121.623 3.33113C121.623 4.87753 122.877 6.13113 124.423 6.13113Z" fill="#F1F3F9"/>
<path id="Vector_4" d="M23.0231 22.0312C24.5695 22.0312 25.8231 20.7776 25.8231 19.2312C25.8231 17.6848 24.5695 16.4312 23.0231 16.4312C21.4767 16.4312 20.2231 17.6848 20.2231 19.2312C20.2231 20.7776 21.4767 22.0312 23.0231 22.0312Z" fill="#F1F3F9"/>
<path id="Vector_5" d="M5.92314 76.0311C8.79502 76.0311 11.1231 73.703 11.1231 70.8311C11.1231 67.9592 8.79502 65.6311 5.92314 65.6311C3.05126 65.6311 0.723145 67.9592 0.723145 70.8311C0.723145 73.703 3.05126 76.0311 5.92314 76.0311Z" fill="#F1F3F9"/>
<path id="Vector_6" d="M107.723 28.8311V91.6311C98.6229 100.731 86.0229 106.231 72.123 106.231C58.323 106.231 45.7229 100.631 36.5229 91.6311V28.8311H107.723Z" fill="white" stroke="#D6DCE8" stroke-width="2" stroke-miterlimit="10"/>
<path id="Vector_7" d="M68.6662 56.1702L84.8064 40.03L89.5439 44.7676L68.7552 65.5564L68.7322 65.5334L68.6432 65.6224L54.7134 51.6925L59.4509 46.9549L68.6662 56.1702Z" fill="#D6DCE8" stroke="#AAB2C5" stroke-width="2" stroke-miterlimit="10"/>
<path id="Vector_8" d="M90.3228 74.1311H53.9229V78.7311H90.3228V74.1311Z" fill="#D6DCE8"/>
<path id="Vector_9" d="M90.3228 84.2312H53.9229V88.8312H90.3228V84.2312Z" fill="#D6DCE8"/>
<path id="Vector_10" d="M81.4232 94.4312H62.8232V99.0312H81.4232V94.4312Z" fill="#D6DCE8"/>
</g>
<defs>
<clipPath id="clip0_2510_16099">
<rect width="127" height="107" fill="white" transform="translate(0.5 0.5)"/>
</clipPath>
</defs>
</svg>
