<svg width="128" height="122" viewBox="0 0 128 122" fill="none" xmlns="http://www.w3.org/2000/svg">
<g id="10" clip-path="url(#clip0_2510_16017)">
<path id="Vector" d="M123.055 69.6179C123.055 83.8179 117.255 96.6179 107.955 105.818C98.8553 114.918 86.2553 120.418 72.3553 120.418C58.5553 120.418 45.9553 114.818 36.7553 105.818C27.4553 96.6179 21.6553 83.8179 21.6553 69.6179C21.6553 41.5179 44.3553 18.8179 72.3553 18.8179C100.355 18.8179 123.055 41.6179 123.055 69.6179Z" fill="#F1F3F9" stroke="#D6DCE8" stroke-width="2" stroke-miterlimit="10"/>
<path id="Vector_2" d="M65.3248 24.0288L61.5639 37.2939L70.5664 43.5331L69.9333 58.7748L81.2961 37.9211L76.0183 33.7043L82.0544 24.0288H88.8307L109.33 46.3288L110.13 110.729C110.13 112.929 108.33 114.629 106.13 114.629H43.3307C41.1306 114.629 39.3306 112.829 39.3306 110.729V27.9288C39.3306 25.7288 41.1306 24.0288 43.3307 24.0288H65.3248Z" fill="white" stroke="#D6DCE8" stroke-width="2" stroke-miterlimit="10" stroke-linejoin="round"/>
<path id="Vector_3" d="M118.655 36.3177C120.92 36.3177 122.755 34.482 122.755 32.2177C122.755 29.9533 120.92 28.1177 118.655 28.1177C116.391 28.1177 114.555 29.9533 114.555 32.2177C114.555 34.482 116.391 36.3177 118.655 36.3177Z" fill="#F1F3F9"/>
<path id="Vector_4" d="M124.655 20.3178C126.202 20.3178 127.455 19.0642 127.455 17.5178C127.455 15.9714 126.202 14.7178 124.655 14.7178C123.109 14.7178 121.855 15.9714 121.855 17.5178C121.855 19.0642 123.109 20.3178 124.655 20.3178Z" fill="#F1F3F9"/>
<path id="Vector_5" d="M23.2556 36.2177C24.802 36.2177 26.0556 34.9641 26.0556 33.4177C26.0556 31.8713 24.802 30.6177 23.2556 30.6177C21.7092 30.6177 20.4556 31.8713 20.4556 33.4177C20.4556 34.9641 21.7092 36.2177 23.2556 36.2177Z" fill="#F1F3F9"/>
<path id="Vector_6" d="M6.15556 90.2179C9.02744 90.2179 11.3555 87.8898 11.3555 85.0179C11.3555 82.146 9.02744 79.8179 6.15556 79.8179C3.28368 79.8179 0.955566 82.146 0.955566 85.0179C0.955566 87.8898 3.28368 90.2179 6.15556 90.2179Z" fill="#F1F3F9"/>
<path id="Vector_7" d="M61.1847 37.5287H49.0847C48.3847 37.5287 47.7847 36.9287 47.7847 36.2287C47.7847 35.5287 48.3847 34.9287 49.0847 34.9287H61.1847C61.8847 34.9287 62.4847 35.5287 62.4847 36.2287C62.4847 36.9287 61.8847 37.5287 61.1847 37.5287Z" fill="#D6DCE8"/>
<path id="Vector_8" d="M60.6847 44.7289H49.0847C48.3847 44.7289 47.7847 44.1289 47.7847 43.4289C47.7847 42.7289 48.3847 42.1289 49.0847 42.1289H60.5847C61.2847 42.1289 61.8847 42.7289 61.8847 43.4289C61.8847 44.1289 61.2847 44.7289 60.6847 44.7289Z" fill="#D6DCE8"/>
<path id="Vector_9" d="M87.9849 24.0288V41.8288C87.9849 44.3288 90.1849 46.3288 92.6849 46.3288H108.485" fill="#D6DCE8"/>
<path id="Vector_10" d="M61.9354 18.0836L58.1538 12.3911" stroke="#A2ABBE" stroke-width="2"/>
<path id="Vector_11" d="M72.0205 15.2374L72.4648 0.817871" stroke="#A2ABBE" stroke-width="2"/>
<path id="Vector_12" d="M81.0625 18.2178L87.0992 5.11523" stroke="#A2ABBE" stroke-width="2"/>
<path id="Vector_13" d="M60.5268 90.197C60.1068 90.197 59.7707 90.0289 59.4347 89.7769C58.8466 89.1888 58.8466 88.1807 59.4347 87.5926C63.2993 83.812 68.424 81.7117 73.8849 81.7117C79.3457 81.7117 84.4705 83.812 88.3351 87.5926C88.9232 88.1807 88.9232 89.1888 88.3351 89.7769C87.747 90.365 86.7388 90.365 86.1507 89.7769C82.8742 86.5004 78.5056 84.7361 73.8849 84.7361C69.2642 84.7361 64.8955 86.5004 61.619 89.7769C61.283 90.0289 60.9469 90.197 60.5268 90.197Z" fill="#AAB2C5"/>
<path id="Vector_14" d="M65.8196 67.6815L67.836 65.6652C68.424 65.0771 68.424 64.069 67.836 63.4809C67.2479 62.8928 66.2397 62.8928 65.6516 63.4809L63.6353 65.4972L61.619 63.4809C61.0309 62.8928 60.0228 62.8928 59.4347 63.4809C58.8466 64.069 58.8466 65.0771 59.4347 65.6652L61.451 67.6815L59.4347 69.6978C58.8466 70.2859 58.8466 71.294 59.4347 71.8821C59.7707 72.2182 60.1068 72.3022 60.5268 72.3022C60.9469 72.3022 61.283 72.1342 61.619 71.8821L63.6353 69.8658L65.6516 71.8821C65.9877 72.2182 66.3237 72.3022 66.7438 72.3022C67.1639 72.3022 67.4999 72.1342 67.836 71.8821C68.424 71.294 68.424 70.2859 67.836 69.6978L65.8196 67.6815Z" fill="#AAB2C5"/>
<path id="Vector_15" d="M86.2348 67.6815L88.2511 65.6652C88.8392 65.0771 88.8392 64.069 88.2511 63.4809C87.663 62.8928 86.6549 62.8928 86.0668 63.4809L84.0505 65.4972L82.0342 63.4809C81.4461 62.8928 80.4379 62.8928 79.8498 63.4809C79.2617 64.069 79.2617 65.0771 79.8498 65.6652L81.8661 67.6815L79.8498 69.6978C79.2617 70.2859 79.2617 71.294 79.8498 71.8821C80.1859 72.2182 80.5219 72.3022 80.942 72.3022C81.3621 72.3022 81.6981 72.1342 82.0342 71.8821L84.0505 69.8658L86.0668 71.8821C86.4028 72.2182 86.7389 72.3022 87.1589 72.3022C87.579 72.3022 87.9151 72.1342 88.2511 71.8821C88.8392 71.294 88.8392 70.2859 88.2511 69.6978L86.2348 67.6815Z" fill="#AAB2C5"/>
</g>
<defs>
<clipPath id="clip0_2510_16017">
<rect width="128" height="121" fill="white" transform="translate(0 0.5)"/>
</clipPath>
</defs>
</svg>
