<svg width="102" height="96" viewBox="0 0 102 96" fill="none" xmlns="http://www.w3.org/2000/svg">
<g id="9">
<path id="Vector" d="M56.6758 93.7956C78.6602 93.7956 96.4834 73.8034 96.4834 49.0548C96.4834 24.3062 78.5817 4.31348 56.6758 4.31348C34.6915 4.31348 16.8684 24.3062 16.8684 49.0548C16.8684 73.8034 34.6915 93.7956 56.6758 93.7956Z" fill="#F1F3F9" stroke="#D6DCE8" stroke-width="2" stroke-miterlimit="10"/>
<path id="Vector_2" d="M93.8925 19.7264C95.6701 19.7264 97.1116 18.1097 97.1116 16.1154C97.1116 14.1211 95.6701 12.5044 93.8925 12.5044C92.1141 12.5044 90.6733 14.1211 90.6733 16.1154C90.6733 18.1097 92.1141 19.7264 93.8925 19.7264Z" fill="#F1F3F9"/>
<path id="Vector_3" d="M98.6032 5.63451C99.8171 5.63451 100.802 4.53041 100.802 3.16845C100.802 1.80648 99.8171 0.702393 98.6032 0.702393C97.3886 0.702393 96.4048 1.80648 96.4048 3.16845C96.4048 4.53041 97.3886 5.63451 98.6032 5.63451Z" fill="#F1F3F9"/>
<path id="Vector_4" d="M18.9882 19.6384C20.2024 19.6384 21.1867 18.5343 21.1867 17.1724C21.1867 15.8104 20.2024 14.7063 18.9882 14.7063C17.7741 14.7063 16.7898 15.8104 16.7898 17.1724C16.7898 18.5343 17.7741 19.6384 18.9882 19.6384Z" fill="#F1F3F9"/>
<path id="Vector_5" d="M5.56206 67.1977C7.81693 67.1977 9.64485 65.1472 9.64485 62.6179C9.64485 60.0885 7.81693 58.0381 5.56206 58.0381C3.30718 58.0381 1.47925 60.0885 1.47925 62.6179C1.47925 65.1472 3.30718 67.1977 5.56206 67.1977Z" fill="#F1F3F9"/>
<path id="Vector_6" d="M68.2177 25.275L80.2307 73.7154C80.6233 75.3888 79.7596 77.0621 78.2677 77.5025L35.9477 90.0972C34.4559 90.5376 32.9641 89.5688 32.5716 87.8952L17.8106 25.3631C17.418 23.6897 18.2817 22.0163 19.7735 21.576L50.3946 12.5044L68.2177 25.275Z" fill="white" stroke="#D6DCE8" stroke-width="2" stroke-miterlimit="10"/>
<path id="Vector_7" d="M67.5893 55.9246L44.7412 62.7062L42.2287 63.4108L34.6127 65.7007C34.2987 65.7888 34.0631 66.2292 34.2201 66.6695C34.2987 67.1099 34.6912 67.3741 35.0053 67.2861L42.6213 64.9961L45.1338 64.2916L67.9819 57.5099C68.2959 57.4218 68.5315 56.9815 68.3744 56.5411C68.2959 56.1007 67.9034 55.8365 67.5893 55.9246Z" fill="#D6DCE8"/>
<path id="Vector_8" d="M66.0975 49.9356L57.6179 52.4016L54.7128 53.2824L33.278 59.7117C32.9639 59.7998 32.7284 60.2401 32.8854 60.6805C32.9639 61.1209 33.3565 61.3851 33.6706 61.297L55.1839 54.8677L58.0889 53.9869L66.5686 51.5209C66.8827 51.4328 67.1182 50.9924 66.9612 50.5521C66.8042 50.1998 66.4116 49.8475 66.0975 49.9356Z" fill="#D6DCE8"/>
<path id="Vector_9" d="M64.8414 43.8586L62.6429 44.4751L60.4445 45.0917L31.7863 53.6348C31.4722 53.7228 31.2367 54.1632 31.3937 54.6036C31.4722 55.0439 31.8648 55.3082 32.1789 55.2201L60.8371 46.677L63.2711 45.9724L65.234 45.3559C65.548 45.2678 65.7836 44.8274 65.6265 44.3871C65.548 44.0348 65.234 43.7705 64.8414 43.8586Z" fill="#D6DCE8"/>
<path id="Vector_10" d="M51.5723 75.0365L50.0019 75.4769C49.6879 75.565 49.2953 75.3007 49.2168 74.8604C49.1383 74.42 49.2953 73.9796 49.6094 73.8916L51.1797 73.4512C51.4937 73.3631 51.8863 73.6274 51.9648 74.0677C52.0433 74.5962 51.8863 74.9485 51.5723 75.0365Z" fill="#D6DCE8"/>
<path id="Vector_11" d="M46.7827 76.4457L37.7534 79.0879C37.4393 79.176 37.0468 78.9118 36.9683 78.4714C36.8897 78.031 37.0468 77.5907 37.3608 77.5026L46.3901 74.8604C46.7042 74.7723 47.0968 75.0365 47.1753 75.4769C47.3323 75.9173 47.1753 76.3576 46.7827 76.4457Z" fill="#D6DCE8"/>
<path id="Vector_12" d="M63.7422 37.7818L56.5973 39.8955L54.87 40.424L30.4516 47.646C30.1375 47.7341 29.902 48.1744 30.059 48.6148C30.1375 49.0552 30.5301 49.3194 30.8442 49.2313L55.184 42.0974L56.9114 41.5689L63.9778 39.4552C64.3703 39.3671 64.5274 38.9267 64.4489 38.3983C64.4489 38.046 64.0563 37.6937 63.7422 37.7818Z" fill="#D6DCE8"/>
<path id="Vector_13" d="M46.8612 24.4825L26.6042 30.4714C26.1331 30.6476 25.662 30.2953 25.505 29.7669C25.3479 29.2384 25.662 28.71 26.1331 28.5338L46.3901 22.5448C46.8612 22.3687 47.3323 22.721 47.4893 23.2494C47.6464 23.7779 47.3323 24.3063 46.8612 24.4825Z" fill="#D6DCE8"/>
<path id="Vector_14" d="M35.7122 33.6421L27.9391 35.932C27.468 36.1082 26.997 35.7559 26.8399 35.2274C26.6829 34.699 26.997 34.1706 27.468 33.9944L35.1626 31.7045C35.6337 31.5284 36.1048 31.8807 36.2618 32.4091C36.4188 32.9375 36.1048 33.466 35.7122 33.6421Z" fill="#D6DCE8"/>
<path id="Vector_15" d="M50.3945 12.5044L53.5352 25.8916C54.0062 27.7411 55.8121 28.886 57.4609 28.3576L68.2176 25.275" fill="#D6DCE8"/>
<path id="Vector_16" d="M99.938 38.9263L92.7146 88.6C92.479 90.2734 90.9872 91.4184 89.4954 91.0661L46.4687 82.6107C44.9769 82.3465 43.9562 80.6731 44.1918 78.9997L54.1632 15.3226C54.3988 13.6492 55.8906 12.5043 57.3824 12.8566L88.6318 19.0217L99.938 38.9263Z" fill="white" stroke="#D6DCE8" stroke-width="2" stroke-miterlimit="10"/>
<path id="Vector_17" d="M87.9249 66.4934L64.6842 61.9135L62.1717 61.3851L54.3986 59.8879C54.0845 59.7998 53.692 60.1521 53.692 60.5924C53.6135 61.0328 53.849 61.4732 54.1631 61.5612L61.9361 63.0585L64.4486 63.5869L87.6894 68.1667C88.0035 68.2548 88.396 67.9025 88.396 67.4622C88.4745 67.0218 88.3175 66.5814 87.9249 66.4934Z" fill="#D6DCE8"/>
<path id="Vector_18" d="M88.8674 60.4162L80.2307 58.7428L77.3255 58.1263L55.4196 53.8107C55.1056 53.7226 54.713 54.0749 54.713 54.5153C54.6345 54.9557 54.87 55.396 55.1841 55.4841L77.0899 59.7997L79.9952 60.4162L88.6319 62.0896C88.9459 62.1777 89.3385 61.8254 89.3385 61.385C89.417 60.9447 89.1815 60.5043 88.8674 60.4162Z" fill="#D6DCE8"/>
<path id="Vector_19" d="M89.9666 54.2512L87.6897 53.8108L85.4127 53.3704L56.2048 47.6457C55.8907 47.5576 55.4981 47.9099 55.4981 48.3503C55.4196 48.7906 55.6552 49.231 55.9692 49.3191L85.1772 55.0438L87.6897 55.5723L89.6526 55.9246C89.9666 56.0126 90.3592 55.6603 90.3592 55.22C90.5163 54.7796 90.3592 54.3392 89.9666 54.2512Z" fill="#D6DCE8"/>
<path id="Vector_20" d="M66.2549 76.3575L64.6846 76.0932C64.3705 76.0052 64.1349 75.5648 64.2135 75.1244C64.292 74.6841 64.606 74.3318 64.9201 74.4198L66.4904 74.6841C66.8045 74.7721 67.04 75.2125 66.9615 75.6529C66.883 76.1813 66.5689 76.3575 66.2549 76.3575Z" fill="#D6DCE8"/>
<path id="Vector_21" d="M61.4651 75.3886L52.2788 73.6272C51.9647 73.5391 51.7292 73.0987 51.8077 72.6584C51.8862 72.218 52.2003 71.8657 52.5143 71.9538L61.7007 73.7152C62.0147 73.8033 62.2503 74.2437 62.1718 74.684C62.0932 75.2125 61.7792 75.4767 61.4651 75.3886Z" fill="#D6DCE8"/>
<path id="Vector_22" d="M91.2227 48.2621L83.9207 46.8529L82.1149 46.5006L57.2253 41.5685C56.9112 41.4804 56.5186 41.8327 56.5186 42.2731C56.4401 42.7135 56.6757 43.1538 56.9897 43.2419L81.8793 48.174L83.6852 48.5263L90.9086 49.9355C91.3012 50.0236 91.6153 49.6713 91.6938 49.2309C91.7723 48.7905 91.5368 48.3502 91.2227 48.2621Z" fill="#D6DCE8"/>
<path id="Vector_23" d="M80.9373 28.2693L60.2875 24.2179C59.8164 24.1299 59.5024 23.6014 59.5809 23.073C59.6594 22.5446 60.1305 22.1923 60.6016 22.2803L81.2513 26.3317C81.7224 26.4198 82.0365 26.9482 81.958 27.4767C81.8795 27.917 81.4084 28.3574 80.9373 28.2693Z" fill="#D6DCE8"/>
<path id="Vector_24" d="M67.3538 31.264L59.4237 29.6786C58.9527 29.5906 58.6386 29.0621 58.7171 28.5337C58.7956 28.0052 59.2667 27.653 59.7378 27.741L67.5894 29.3263C68.0605 29.4144 68.3745 29.9429 68.296 30.4713C68.2175 30.9997 67.7464 31.352 67.3538 31.264Z" fill="#D6DCE8"/>
<path id="Vector_25" d="M88.5534 19.0217L86.4335 32.6731C86.1195 34.6107 87.3757 36.4603 89.1031 36.8126L99.9382 38.9263" fill="#D6DCE8"/>
<path id="Vector_26" d="M70.3376 83.9321C80.0077 83.9321 87.8467 75.1388 87.8467 64.2917C87.8467 53.4446 80.0077 44.6514 70.3376 44.6514C60.6676 44.6514 52.8286 53.4446 52.8286 64.2917C52.8286 75.1388 60.6676 83.9321 70.3376 83.9321Z" fill="white"/>
<path id="Vector_27" d="M95.7302 94.6244C95.0503 94.6244 94.3711 94.3196 93.827 93.6335L82.4776 80.9018L82.0693 81.2068C78.3997 84.2562 74.118 85.8572 69.7684 85.8572C64.5354 85.8572 59.3022 83.4939 55.4284 79.3772C51.3506 75.0317 49.1079 69.1616 49.1079 62.7578C49.1079 50.0264 58.3508 39.6584 69.7005 39.6584C77.4482 39.6584 84.2442 44.2326 87.914 52.0086C91.5163 59.7084 91.0405 68.7042 86.6232 75.9465L86.3516 76.404L97.7693 89.2114C98.9243 90.5078 98.6526 91.8034 98.4485 92.4894C97.9051 93.7093 96.8177 94.6244 95.7302 94.6244ZM69.7005 45.986C61.4091 45.986 54.7488 53.5334 54.7488 62.7578C54.7488 73.2783 62.4285 79.6058 69.9043 79.6058C74.4579 79.6058 78.6036 77.3188 81.526 73.2021C85.1283 68.1705 85.7399 61.3855 83.2251 55.5154C80.6427 49.6453 75.4773 45.986 69.7005 45.986Z" fill="#D6DCE8" stroke="#AAB2C5" stroke-width="2" stroke-miterlimit="10"/>
<path id="Vector_28" d="M68.6888 67.462C68.6103 67.1097 68.6103 66.7574 68.6103 66.317C68.6103 64.8198 69.1599 63.4987 70.5731 62.3537L71.7509 61.3849C72.4575 60.7684 72.7716 60.0638 72.7716 59.1831C72.7716 57.9501 71.9864 56.717 70.3376 56.717C68.6103 56.717 67.8251 58.3023 67.8251 59.7996C67.8251 60.1519 67.8251 60.4161 67.9036 60.6803L64.763 60.5923C64.6845 60.24 64.606 59.7996 64.606 59.3592C64.606 56.3647 66.5688 53.5464 70.2591 53.5464C74.0278 53.5464 76.0692 56.2767 76.0692 59.0069C76.0692 61.2088 75.0485 62.706 73.6353 63.851L72.6145 64.6436C71.7509 65.3482 71.2798 66.229 71.2798 67.2858V67.462H68.6888ZM70.0235 69.2235C71.1227 69.2235 71.9864 70.1923 71.9864 71.4253C71.9864 72.6583 71.1227 73.6271 70.0235 73.6271C68.9243 73.6271 68.0606 72.6583 68.0606 71.4253C68.1392 70.2803 68.9243 69.2235 70.0235 69.2235Z" fill="#B2C0D1"/>
</g>
</svg>
